<svg xmlns="http://www.w3.org/2000/svg" viewBox="0 0 32 32">
  <defs>
    <linearGradient id="grad" x1="0%" y1="0%" x2="100%" y2="100%">
      <stop offset="0%" style="stop-color:#22C55E"/>
      <stop offset="100%" style="stop-color:#16A34A"/>
    </linearGradient>
  </defs>
  <rect width="32" height="32" rx="8" fill="url(#grad)"/>
  <path d="M20 8 L20 10 L24 10 C25.1 10 26 10.9 26 12 L26 13 C26 14.1 25.1 15 24 15 L22 15 L22 17 C22 18.1 21.1 19 20 19 L12 19 C10.9 19 10 18.1 10 17 L10 15 L12 15 C13.1 15 14 14.1 14 13 L14 12 C14 10.9 13.1 10 12 10 L10 10 L10 8 C10 6.9 10.9 6 12 6 L20 6 C21.1 6 22 6.9 22 8" fill="#0F0F0F"/>
  <circle cx="20" cy="24" r="3" fill="#0F0F0F"/>
</svg>